
<svg xmlns="http://www.w3.org/2000/svg" xmlns:xlink="http://www.w3.org/1999/xlink" version="1.1"  width="1374" height="653">
<defs id="dmw_defs" >
<svg id="fk_sym" viewBox="0 0 48.665 48.665" style="enable-background:new 0 0 48.665 48.665;" >
<g>
<path d="M40.332,31.592c-2.377,0-4.515,1-6.033,2.598l-17.737-8.686c0.061-0.406,0.103-0.82,0.103-1.246    c0-0.414-0.04-0.818-0.098-1.215l17.711-8.589c1.519,1.609,3.666,2.619,6.054,2.619c4.603,0,8.333-3.731,8.333-8.333    c0-4.603-3.73-8.333-8.333-8.333s-8.333,3.73-8.333,8.333c0,0.414,0.04,0.817,0.098,1.215l-17.709,8.589    c-1.519-1.609-3.666-2.619-6.054-2.619C3.73,15.925,0,19.656,0,24.258c0,4.603,3.73,8.333,8.333,8.333    c2.377,0,4.515-1,6.033-2.596l17.736,8.685c-0.062,0.406-0.104,0.82-0.104,1.245c0,4.604,3.73,8.333,8.333,8.333    s8.333-3.729,8.333-8.333C48.665,35.322,44.935,31.592,40.332,31.592z" fill="#13bf3b"/>
</g>
</svg>
<svg id="pk_sym" viewBox="0 0 480.509 480.509" style="enable-background:new 0 0 480.509 480.509;" >
<g>
<path d="M418.119,331.046c4.094,4.374,7.766,8.186,10.996,11.416c3.237,3.238,6.714,6.376,10.427,9.422   c3.71,3.042,6.427,4.568,8.135,4.568c3.241,0,9.517-4.661,18.843-13.99c9.328-9.321,13.989-15.604,13.989-18.842   c0-1.523-2.714-5.421-8.138-11.704c-5.421-6.276-12.364-13.702-20.838-22.271c-8.473-8.565-16.703-16.744-24.694-24.55   c-8.001-7.81-15.8-15.373-23.417-22.703c-7.611-7.327-11.992-11.56-13.135-12.703c-1.902-1.902-4.093-2.853-6.563-2.853   c-3.237,0-9.521,4.661-18.843,13.988c-9.328,9.322-13.989,15.605-13.989,18.843c0,1.711,1.522,4.421,4.568,8.138   c3.046,3.71,6.188,7.187,9.421,10.424c3.23,3.23,7.047,6.899,11.42,10.992c4.377,4.093,6.848,6.423,7.423,6.995l-27.408,27.404   L254.954,222.268c24.94-33.498,37.408-68.236,37.408-104.211c0-31.024-9.761-56.293-29.263-75.801   c-19.512-19.511-44.778-29.265-75.805-29.265c-30.454,0-60.244,9.042-89.363,27.119c-29.121,18.083-52.727,41.686-70.808,70.808   C9.042,140.038,0,169.828,0,200.28c0,31.029,9.753,56.286,29.265,75.803c19.511,19.517,44.777,29.27,75.801,29.27   c35.976,0,70.71-12.467,104.212-37.407l191.574,191.579c5.332,5.328,11.796,7.994,19.417,7.994c7.991,0,15.704-3.72,23.12-11.14   c7.426-7.426,11.143-15.129,11.143-23.127c0-7.617-2.666-14.092-7.994-19.417l-62.811-62.811l27.405-27.404   C411.699,324.195,414.033,326.666,418.119,331.046z M221.556,161.458c-10.656,10.657-23.601,15.987-38.828,15.987   c-7.996,0-15.896-1.812-23.7-5.43c3.617,7.808,5.426,15.706,5.426,23.7c0,15.229-5.327,28.171-15.987,38.828   c-10.66,10.655-23.606,15.986-38.831,15.986c-15.227,0-28.168-5.325-38.828-15.986c-10.657-10.657-15.987-23.599-15.987-38.828   c0-15.227,5.327-28.171,15.987-38.828C81.464,146.23,94.409,140.9,109.636,140.9c7.992,0,15.893,1.809,23.695,5.424   c-3.616-7.804-5.424-15.706-5.424-23.699c0-15.227,5.327-28.171,15.987-38.828c10.66-10.657,23.604-15.987,38.831-15.987   c15.227,0,28.171,5.327,38.828,15.987c10.657,10.66,15.987,23.601,15.987,38.828C237.539,137.852,232.209,150.797,221.556,161.458z   " fill="#ff8345"/>
</g>
</svg>
<svg id="uk_sym" viewBox="0 0 490 490" style="enable-background:new 0 0 490 490;" >
<g>
	<polygon points="236.99,11.41 0,246.348 236.99,478.678 236.99,350.609 129.864,245 236.99,139.391  " fill="#0064fb"/>
<polygon points="253.01,478.59 490,243.651 253.01,11.322 253.01,139.391 360.136,245 253.01,350.609  " fill="#0064fb"/>
</g>
</svg>
<svg id="link_sym" viewBox="0 0 1000 900" style="enable-background:new 0 0 1000 900;" >
<g>
<path fill="black" d="M660.224 422.656c6.976 16.192-0.512 35.008-16.768 42.048-16.128 6.976-34.944-0.448-41.984-16.768-8.448-19.776-20.736-37.696-36.224-53.248-64.64-64.64-177.344-64.64-241.92 0l-145.216 145.28c-66.688 66.688-66.688 175.232 0 241.984 66.688 66.688 175.104 66.752 241.92 0l92.8-92.864c12.48-12.48 32.768-12.48 45.248 0s12.48 32.768 0 45.248l-92.8 92.864c-91.648 91.648-240.832 91.52-332.416 0-91.712-91.648-91.712-240.832 0-332.48l145.216-145.28c44.352-44.416 103.424-68.864 166.272-68.864s121.792 24.448 166.208 68.864c21.248 21.312 38.016 45.952 49.664 73.216zM891.136 401.344l-145.216 145.216c-88.768 88.832-243.712 88.832-332.416 0-21.312-21.312-38.080-45.952-49.728-73.216-7.040-16.256 0.448-35.072 16.704-42.048 16.064-6.784 35.008 0.512 41.984 16.768 8.512 19.776 20.8 37.696 36.288 53.248 64.64 64.64 177.344 64.64 241.92 0l145.216-145.216c66.688-66.688 66.688-175.232 0-241.984-66.752-66.624-175.168-66.688-241.92 0l-92.8 92.864c-12.48 12.48-32.768 12.48-45.248 0s-12.48-32.768 0-45.248l92.8-92.864c45.824-45.824 105.984-68.736 166.208-68.736s120.448 22.912 166.272 68.736c91.584 91.648 91.584 240.768-0.064 332.48z" />
</g>
</svg>
<clipPath clipPathUnits="userSpaceOnUse" id="clipPath5_0_">
<rect x="0" y="0" width="177" height="72" />
</clipPath>
<clipPath clipPathUnits="userSpaceOnUse" id="clipPath7_0_">
<rect x="0" y="0" width="222" height="195" />
</clipPath>
<clipPath clipPathUnits="userSpaceOnUse" id="clipPath3_0_">
<rect x="0" y="0" width="263" height="156" />
</clipPath>
<clipPath clipPathUnits="userSpaceOnUse" id="clipPath9_0_">
<rect x="0" y="0" width="185" height="111" />
</clipPath>
<clipPath clipPathUnits="userSpaceOnUse" id="clipPath12_0_">
<rect x="0" y="0" width="209" height="169" />
</clipPath>
<clipPath clipPathUnits="userSpaceOnUse" id="clipPath8_0_">
<rect x="0" y="0" width="185" height="85" />
</clipPath>
<clipPath clipPathUnits="userSpaceOnUse" id="clipPath11_0_">
<rect x="0" y="0" width="274" height="96" />
</clipPath>
<clipPath clipPathUnits="userSpaceOnUse" id="clipPath10_0_">
<rect x="0" y="0" width="218" height="96" />
</clipPath>
<clipPath clipPathUnits="userSpaceOnUse" id="clipPath2_0_">
<rect x="0" y="0" width="201" height="117" />
</clipPath>
<clipPath clipPathUnits="userSpaceOnUse" id="clipPath6_0_">
<rect x="0" y="0" width="251" height="104" />
</clipPath>
<clipPath clipPathUnits="userSpaceOnUse" id="clipPath4_0_">
<rect x="0" y="0" width="237" height="156" />
</clipPath>
<clipPath clipPathUnits="userSpaceOnUse" id="clipPath1_0_">
<rect x="0" y="0" width="219" height="111" />
</clipPath>
</defs>
<g stroke-linecap="butt" >
<path stroke="rgb(0,0,0)" fill="none" stroke-opacity="1.0"  stroke-width="1" d="M780 375 L780 336" />
<polygon stroke="rgb(0,0,0)" stroke-dasharray="none" points="780 375 777 369 783 369" fill="rgb(0,0,0)" stroke-width="1" stroke-opacity="1.0"  />
<path stroke-dasharray="none" d="M786.0 336.0 L780.0 348.0 L774.0 336.0 M786.0 348.5999994277954 L774.0 348.5999994277954" fill="white" stroke-width="1" stroke-opacity="1.0" stroke="rgb(0,0,0)" />
</g>
<g stroke-linecap="butt" >
<path stroke="rgb(0,0,0)" fill="none" stroke-opacity="1.0"  stroke-width="1" d="M524 513 L524 557" />
<polygon stroke="rgb(0,0,0)" stroke-dasharray="none" points="524 513 527 519 521 519" fill="rgb(0,0,0)" stroke-width="1" stroke-opacity="1.0"  />
<path stroke-dasharray="none" d="M518.0 557.0 L524.0 545.0 L530.0 557.0 M518.0 544.4000005722046 L530.0 544.4000005722046" fill="white" stroke-width="1" stroke-opacity="1.0" stroke="rgb(0,0,0)" />
</g>
<g stroke-linecap="butt" >
<path stroke="rgb(0,0,0)" fill="none" stroke-opacity="1.0"  stroke-width="1" d="M350 422 L393 422" />
<polygon stroke="rgb(0,0,0)" stroke-dasharray="none" points="350 422 356 419 356 425" fill="rgb(0,0,0)" stroke-width="1" stroke-opacity="1.0"  />
<path stroke-dasharray="none" d="M393.0 428.0 L381.0 422.0 L393.0 416.0 M380.4000005722046 428.0 L380.4000005722046 416.0" fill="white" stroke-width="1" stroke-opacity="1.0" stroke="rgb(0,0,0)" />
</g>
<g stroke-linecap="butt" >
<path stroke="rgb(0,0,0)" fill="none" stroke-opacity="1.0"  stroke-width="1" d="M1115 424 L1115 472" />
<polygon stroke="rgb(0,0,0)" stroke-dasharray="none" points="1115 424 1118 430 1112 430" fill="rgb(0,0,0)" stroke-width="1" stroke-opacity="1.0"  />
<path stroke-dasharray="none" d="M1109.0 472.0 L1115.0 460.0 L1121.0 472.0 M1109.0 459.4000005722046 L1121.0 459.4000005722046" fill="white" stroke-width="1" stroke-opacity="1.0" stroke="rgb(0,0,0)" />
</g>
<g stroke-linecap="butt" >
<path stroke="rgb(0,0,0)" fill="none" stroke-opacity="1.0"  stroke-width="1" d="M944 399 L898 399" />
<polygon stroke="rgb(0,0,0)" stroke-dasharray="none" points="944 399 938 402 938 396" fill="rgb(0,0,0)" stroke-width="1" stroke-opacity="1.0"  />
<path stroke-dasharray="none" d="M898.0 393.0 L910.0 399.0 L898.0 405.0 M910.5999994277954 393.0 L910.5999994277954 405.0" fill="white" stroke-width="1" stroke-opacity="1.0" stroke="rgb(0,0,0)" />
</g>
<g stroke-linecap="butt" >
<path stroke="rgb(0,0,0)" fill="none" stroke-opacity="1.0"  stroke-width="1" d="M1252 326 L1252 472" />
<polygon stroke="rgb(0,0,0)" stroke-dasharray="none" points="1252 326 1255 332 1249 332" fill="rgb(0,0,0)" stroke-width="1" stroke-opacity="1.0"  />
<path stroke-dasharray="none" d="M1246.0 472.0 L1252.0 460.0 L1258.0 472.0 M1246.0 459.4000005722046 L1258.0 459.4000005722046" fill="white" stroke-width="1" stroke-opacity="1.0" stroke="rgb(0,0,0)" />
</g>
<g stroke-linecap="butt" >
<path stroke="rgb(0,0,0)" fill="none" stroke-opacity="1.0"  stroke-width="1" d="M615 327 L671 327" />
<polygon stroke="rgb(0,0,0)" stroke-dasharray="none" points="615 327 621 324 621 330" fill="rgb(0,0,0)" stroke-width="1" stroke-opacity="1.0"  />
<path stroke-dasharray="none" d="M671.0 333.0 L659.0 327.0 L671.0 321.0 M658.4000005722046 333.0 L658.4000005722046 321.0" fill="white" stroke-width="1" stroke-opacity="1.0" stroke="rgb(0,0,0)" />
</g>
<g stroke-linecap="butt" >
<path stroke="rgb(0,0,0)" fill="none" stroke-opacity="1.0"  stroke-width="1" d="M977 424 L977 494" />
<polygon stroke="rgb(0,0,0)" stroke-dasharray="none" points="977 424 980 430 974 430" fill="rgb(0,0,0)" stroke-width="1" stroke-opacity="1.0"  />
<path stroke-dasharray="none" d="M971.0 494.0 L977.0 482.0 L983.0 494.0 M971.0 481.4000005722046 L983.0 481.4000005722046" fill="white" stroke-width="1" stroke-opacity="1.0" stroke="rgb(0,0,0)" />
</g>
<g stroke-linecap="butt" >
<path stroke="rgb(0,0,0)" fill="none" stroke-opacity="1.0"  stroke-width="1" d="M481 278 L481 318" />
<polygon stroke="rgb(0,0,0)" stroke-dasharray="none" points="481 278 484 284 478 284" fill="rgb(0,0,0)" stroke-width="1" stroke-opacity="1.0"  />
<path stroke-dasharray="none" d="M475.0 318.0 L481.0 306.0 L487.0 318.0 M475.0 305.4000005722046 L487.0 305.4000005722046" fill="white" stroke-width="1" stroke-opacity="1.0" stroke="rgb(0,0,0)" />
</g>
<g stroke-linecap="butt" >
<path stroke="rgb(0,0,0)" fill="none" stroke-opacity="1.0"  stroke-dasharray="8,8" stroke-width="1" d="M1153 354 L1178 354 L1178 448 L1066 448 L1066 424" />
<polygon stroke="rgb(0,0,0)" stroke-dasharray="none" points="1153 354 1159 351 1159 357" fill="rgb(0,0,0)" stroke-width="1" stroke-opacity="1.0"  />
<path stroke-dasharray="none" d="M1072.0 424.0 L1066.0 436.0 L1060.0 424.0 M1072.0 436.5999994277954 L1060.0 436.5999994277954" fill="white" stroke-width="1" stroke-opacity="1.0" stroke="rgb(0,0,0)" />
</g>
<g stroke-linecap="butt" >
<path stroke="rgb(0,0,0)" fill="none" stroke-opacity="1.0"  stroke-width="1" d="M243 317 L243 364" />
<polygon stroke="rgb(0,0,0)" stroke-dasharray="none" points="243 317 246 323 240 323" fill="rgb(0,0,0)" stroke-width="1" stroke-opacity="1.0"  />
<path stroke-dasharray="none" d="M237.0 364.0 L243.0 352.0 L249.0 364.0 M237.0 351.4000005722046 L249.0 351.4000005722046" fill="white" stroke-width="1" stroke-opacity="1.0" stroke="rgb(0,0,0)" />
</g>
<g stroke-linecap="butt" >
<path stroke="rgb(0,0,0)" fill="none" stroke-opacity="1.0"  stroke-width="1" d="M1189 290 L1153 290" />
<polygon stroke="rgb(0,0,0)" stroke-dasharray="none" points="1189 290 1183 293 1183 287" fill="rgb(0,0,0)" stroke-width="1" stroke-opacity="1.0"  />
<path stroke-dasharray="none" d="M1153.0 284.0 L1165.0 290.0 L1153.0 296.0 M1165.5999994277954 284.0 L1165.5999994277954 296.0" fill="white" stroke-width="1" stroke-opacity="1.0" stroke="rgb(0,0,0)" />
</g>
<g stroke-linecap="butt" >
<path stroke="rgb(0,0,0)" fill="none" stroke-opacity="1.0"  stroke-width="1" d="M358 594 L433 594" />
<polygon stroke="rgb(0,0,0)" stroke-dasharray="none" points="358 594 364 591 364 597" fill="rgb(0,0,0)" stroke-width="1" stroke-opacity="1.0"  />
<path stroke-dasharray="none" d="M433.0 600.0 L421.0 594.0 L433.0 588.0 M420.4000005722046 600.0 L420.4000005722046 588.0" fill="white" stroke-width="1" stroke-opacity="1.0" stroke="rgb(0,0,0)" />
</g>
<g  fill="rgb(255,255,180)" stroke="rgb(0,0,255)" fill-opacity="1.0" stroke-opacity="1.0" clip-path="url(#clipPath6_0_)" transform="translate(647,375)" >
<rect x="0" y="0" width="250" height="103" />
<text id="C3831CFE-01ED5E76C6E1" x="94" y="13" fill="rgb(0,0,255)" font-weight="bold"  fill-opacity="1.0" font-size="10" stroke="none">
lista_reprod
</text>
<line x1="0" y1="17" x2="249" y2="17" fill="none" stroke="rgb(0,0,255)"/>
<text x="16" y="30" fill="rgb(255,0,0)" fill-opacity="1.0" font-size="10" stroke="none">
*
</text>
<text x="2" y="30" fill="rgb(0,0,255)" fill-opacity="1.0" font-size="10" stroke="none">
P
</text>
<text x="26" y="30" fill="rgb(0,0,0)" fill-opacity="1.0" font-size="10" stroke="none">
id_lista
</text>
<text x="137" y="30" fill="rgb(0,128,0)" fill-opacity="1.0" font-size="10" stroke="none">
NUMBER (10)
</text>
<text x="16" y="43" fill="rgb(255,0,0)" fill-opacity="1.0" font-size="10" stroke="none">
*
</text>
<text x="26" y="43" fill="rgb(0,0,0)" fill-opacity="1.0" font-size="10" stroke="none">
nome_lista
</text>
<text x="137" y="43" fill="rgb(0,128,0)" fill-opacity="1.0" font-size="10" stroke="none">
VARCHAR2 (20)
</text>
<text x="16" y="56" fill="rgb(255,0,0)" fill-opacity="1.0" font-size="10" stroke="none">
*
</text>
<text x="2" y="56" fill="rgb(0,0,0)" fill-opacity="1.0" font-size="10" stroke="none">
F
</text>
<text x="26" y="56" fill="rgb(0,0,0)" fill-opacity="1.0" font-size="10" stroke="none">
usuario_id_usuario
</text>
<text x="137" y="56" fill="rgb(0,128,0)" fill-opacity="1.0" font-size="10" stroke="none">
NUMBER (10)
</text>
<line x1="0" y1="62" x2="249" y2="62" fill="none" stroke="rgb(0,0,255)"/>
<use xlink:href="#pk_sym" x="4" y="69" width="8" height="8" fill-opacity="1.0"/>
<text x="16" y="75" fill="rgb(0,0,0)" fill-opacity="1.0" font-size="10" stroke="none">
lista_reprod_PK (id_lista)
</text>
<line x1="0" y1="81" x2="249" y2="81" fill="none" stroke="rgb(0,0,255)"/>
<use xlink:href="#fk_sym" x="4" y="88" width="8" height="8" fill-opacity="1.0"/><a xlink:href="#619FA8AF-D5ADA11423C8" >
<text x="16" y="94" fill="rgb(0,0,0)" fill-opacity="1.0" font-size="10" stroke="none">
lista_reprod_usuario_FK (usuario_id_usuario)
</text></a>
</g>
<g  fill="rgb(255,255,180)" stroke="rgb(0,0,255)" fill-opacity="1.0" stroke-opacity="1.0" clip-path="url(#clipPath7_0_)" transform="translate(393,318)" >
<rect x="0" y="0" width="221" height="194" />
<text id="2C274FF1-5C18B5126EB5" x="92" y="13" fill="rgb(0,0,255)" font-weight="bold"  fill-opacity="1.0" font-size="10" stroke="none">
musica
</text>
<line x1="0" y1="17" x2="220" y2="17" fill="none" stroke="rgb(0,0,255)"/>
<text x="16" y="30" fill="rgb(255,0,0)" fill-opacity="1.0" font-size="10" stroke="none">
*
</text>
<text x="2" y="30" fill="rgb(0,0,255)" fill-opacity="1.0" font-size="10" stroke="none">
P
</text>
<text x="26" y="30" fill="rgb(0,0,0)" fill-opacity="1.0" font-size="10" stroke="none">
id_musica
</text>
<text x="129" y="30" fill="rgb(0,128,0)" fill-opacity="1.0" font-size="10" stroke="none">
NUMBER (20)
</text>
<text x="16" y="43" fill="rgb(255,0,0)" fill-opacity="1.0" font-size="10" stroke="none">
*
</text>
<text x="26" y="43" fill="rgb(0,0,0)" fill-opacity="1.0" font-size="10" stroke="none">
titulo
</text>
<text x="129" y="43" fill="rgb(0,128,0)" fill-opacity="1.0" font-size="10" stroke="none">
VARCHAR2 (80)
</text>
<text x="16" y="56" fill="rgb(255,0,0)" fill-opacity="1.0" font-size="10" stroke="none">
*
</text>
<text x="26" y="56" fill="rgb(0,0,0)" fill-opacity="1.0" font-size="10" stroke="none">
duracao
</text>
<text x="129" y="56" fill="rgb(0,128,0)" fill-opacity="1.0" font-size="10" stroke="none">
NUMBER (4)
</text>
<text x="16" y="69" fill="rgb(255,0,0)" fill-opacity="1.0" font-size="10" stroke="none">

</text>
<text x="26" y="69" fill="rgb(0,0,0)" fill-opacity="1.0" font-size="10" stroke="none">
ano
</text>
<text x="129" y="69" fill="rgb(0,128,0)" fill-opacity="1.0" font-size="10" stroke="none">
NUMBER (4)
</text>
<text x="16" y="82" fill="rgb(255,0,0)" fill-opacity="1.0" font-size="10" stroke="none">

</text>
<text x="26" y="82" fill="rgb(0,0,0)" fill-opacity="1.0" font-size="10" stroke="none">
letra
</text>
<text x="129" y="82" fill="rgb(0,128,0)" fill-opacity="1.0" font-size="10" stroke="none">
CLOB
</text>
<text x="16" y="95" fill="rgb(255,0,0)" fill-opacity="1.0" font-size="10" stroke="none">
*
</text>
<text x="26" y="95" fill="rgb(0,0,0)" fill-opacity="1.0" font-size="10" stroke="none">
arquivo
</text>
<text x="129" y="95" fill="rgb(0,128,0)" fill-opacity="1.0" font-size="10" stroke="none">
BLOB
</text>
<text x="16" y="108" fill="rgb(255,0,0)" fill-opacity="1.0" font-size="10" stroke="none">

</text>
<text x="26" y="108" fill="rgb(0,0,0)" fill-opacity="1.0" font-size="10" stroke="none">
tags
</text>
<text x="129" y="108" fill="rgb(0,128,0)" fill-opacity="1.0" font-size="10" stroke="none">
VARCHAR2 (500)
</text>
<text x="16" y="121" fill="rgb(255,0,0)" fill-opacity="1.0" font-size="10" stroke="none">
*
</text>
<text x="2" y="121" fill="rgb(0,0,0)" fill-opacity="1.0" font-size="10" stroke="none">
F
</text>
<text x="26" y="121" fill="rgb(0,0,0)" fill-opacity="1.0" font-size="10" stroke="none">
artista_id_artista
</text>
<text x="129" y="121" fill="rgb(0,128,0)" fill-opacity="1.0" font-size="10" stroke="none">
NUMBER (10)
</text>
<text x="16" y="134" fill="rgb(255,0,0)" fill-opacity="1.0" font-size="10" stroke="none">
*
</text>
<text x="2" y="134" fill="rgb(0,0,0)" fill-opacity="1.0" font-size="10" stroke="none">
F
</text>
<text x="26" y="134" fill="rgb(0,0,0)" fill-opacity="1.0" font-size="10" stroke="none">
estilo_id_estilo
</text>
<text x="129" y="134" fill="rgb(0,128,0)" fill-opacity="1.0" font-size="10" stroke="none">
NUMBER (6)
</text>
<line x1="0" y1="140" x2="220" y2="140" fill="none" stroke="rgb(0,0,255)"/>
<use xlink:href="#pk_sym" x="4" y="147" width="8" height="8" fill-opacity="1.0"/>
<text x="16" y="153" fill="rgb(0,0,0)" fill-opacity="1.0" font-size="10" stroke="none">
musica_PK (id_musica)
</text>
<line x1="0" y1="159" x2="220" y2="159" fill="none" stroke="rgb(0,0,255)"/>
<use xlink:href="#fk_sym" x="4" y="166" width="8" height="8" fill-opacity="1.0"/><a xlink:href="#A59E2EA4-8C60EB8312E5" >
<text x="16" y="172" fill="rgb(0,0,0)" fill-opacity="1.0" font-size="10" stroke="none">
musica_artista_FK (artista_id_artista)
</text></a>
<use xlink:href="#fk_sym" x="4" y="179" width="8" height="8" fill-opacity="1.0"/><a xlink:href="#1A4F3B2A-A0DFBD0E6B74" >
<text x="16" y="185" fill="rgb(0,0,0)" fill-opacity="1.0" font-size="10" stroke="none">
musica_estilo_FK (estilo_id_estilo)
</text></a>
</g>
<g  fill="rgb(255,255,180)" stroke="rgb(0,0,255)" fill-opacity="1.0" stroke-opacity="1.0" clip-path="url(#clipPath8_0_)" transform="translate(151,232)" >
<rect x="0" y="0" width="184" height="84" />
<text id="72BE5A0D-0D53686263D6" x="81" y="13" fill="rgb(0,0,255)" font-weight="bold"  fill-opacity="1.0" font-size="10" stroke="none">
pais
</text>
<line x1="0" y1="17" x2="183" y2="17" fill="none" stroke="rgb(0,0,255)"/>
<text x="16" y="30" fill="rgb(255,0,0)" fill-opacity="1.0" font-size="10" stroke="none">
*
</text>
<text x="2" y="30" fill="rgb(0,0,255)" fill-opacity="1.0" font-size="10" stroke="none">
P
</text>
<text x="26" y="30" fill="rgb(0,0,0)" fill-opacity="1.0" font-size="10" stroke="none">
id_pais
</text>
<text x="98" y="30" fill="rgb(0,128,0)" fill-opacity="1.0" font-size="10" stroke="none">
NUMBER (4)
</text>
<text x="16" y="43" fill="rgb(255,0,0)" fill-opacity="1.0" font-size="10" stroke="none">
*
</text>
<text x="26" y="43" fill="rgb(0,0,0)" fill-opacity="1.0" font-size="10" stroke="none">
nome_pais
</text>
<text x="98" y="43" fill="rgb(0,128,0)" fill-opacity="1.0" font-size="10" stroke="none">
VARCHAR2 (30)
</text>
<text x="16" y="56" fill="rgb(255,0,0)" fill-opacity="1.0" font-size="10" stroke="none">
*
</text>
<text x="26" y="56" fill="rgb(0,0,0)" fill-opacity="1.0" font-size="10" stroke="none">
sigla
</text>
<text x="98" y="56" fill="rgb(0,128,0)" fill-opacity="1.0" font-size="10" stroke="none">
VARCHAR2 (3)
</text>
<line x1="0" y1="62" x2="183" y2="62" fill="none" stroke="rgb(0,0,255)"/>
<use xlink:href="#pk_sym" x="4" y="69" width="8" height="8" fill-opacity="1.0"/>
<text x="16" y="75" fill="rgb(0,0,0)" fill-opacity="1.0" font-size="10" stroke="none">
pais_PK (id_pais)
</text>
</g>
<g  fill="rgb(255,255,180)" stroke="rgb(0,0,255)" fill-opacity="1.0" stroke-opacity="1.0" clip-path="url(#clipPath5_0_)" transform="translate(392,206)" >
<rect x="0" y="0" width="176" height="71" />
<text id="1A4F3B2A-A0DFBD0E6B74" x="74" y="13" fill="rgb(0,0,255)" font-weight="bold"  fill-opacity="1.0" font-size="10" stroke="none">
estilo
</text>
<line x1="0" y1="17" x2="175" y2="17" fill="none" stroke="rgb(0,0,255)"/>
<text x="16" y="30" fill="rgb(255,0,0)" fill-opacity="1.0" font-size="10" stroke="none">
*
</text>
<text x="2" y="30" fill="rgb(0,0,255)" fill-opacity="1.0" font-size="10" stroke="none">
P
</text>
<text x="26" y="30" fill="rgb(0,0,0)" fill-opacity="1.0" font-size="10" stroke="none">
id_estilo
</text>
<text x="87" y="30" fill="rgb(0,128,0)" fill-opacity="1.0" font-size="10" stroke="none">
NUMBER (6)
</text>
<text x="16" y="43" fill="rgb(255,0,0)" fill-opacity="1.0" font-size="10" stroke="none">
*
</text>
<text x="26" y="43" fill="rgb(0,0,0)" fill-opacity="1.0" font-size="10" stroke="none">
estilo
</text>
<text x="87" y="43" fill="rgb(0,128,0)" fill-opacity="1.0" font-size="10" stroke="none">
VARCHAR2 (20)
</text>
<line x1="0" y1="49" x2="175" y2="49" fill="none" stroke="rgb(0,0,255)"/>
<use xlink:href="#pk_sym" x="4" y="56" width="8" height="8" fill-opacity="1.0"/>
<text x="16" y="62" fill="rgb(0,0,0)" fill-opacity="1.0" font-size="10" stroke="none">
estilo_PK (id_estilo)
</text>
</g>
<g  fill="rgb(255,255,180)" stroke="rgb(0,0,255)" fill-opacity="1.0" stroke-opacity="1.0" clip-path="url(#clipPath4_0_)" transform="translate(1078,472)" >
<rect x="0" y="0" width="236" height="155" />
<text id="C8C51A52-4177493708D2" x="95" y="13" fill="rgb(0,0,255)" font-weight="bold"  fill-opacity="1.0" font-size="10" stroke="none">
cobranca
</text>
<line x1="0" y1="17" x2="235" y2="17" fill="none" stroke="rgb(0,0,255)"/>
<text x="16" y="30" fill="rgb(255,0,0)" fill-opacity="1.0" font-size="10" stroke="none">
*
</text>
<text x="2" y="30" fill="rgb(0,0,255)" fill-opacity="1.0" font-size="10" stroke="none">
P
</text>
<text x="26" y="30" fill="rgb(0,0,0)" fill-opacity="1.0" font-size="10" stroke="none">
id_cobranca
</text>
<text x="137" y="30" fill="rgb(0,128,0)" fill-opacity="1.0" font-size="10" stroke="none">
NUMBER (10)
</text>
<text x="16" y="43" fill="rgb(255,0,0)" fill-opacity="1.0" font-size="10" stroke="none">
*
</text>
<text x="26" y="43" fill="rgb(0,0,0)" fill-opacity="1.0" font-size="10" stroke="none">
data_pgto
</text>
<text x="137" y="43" fill="rgb(0,128,0)" fill-opacity="1.0" font-size="10" stroke="none">
DATE
</text>
<text x="16" y="56" fill="rgb(255,0,0)" fill-opacity="1.0" font-size="10" stroke="none">
*
</text>
<text x="26" y="56" fill="rgb(0,0,0)" fill-opacity="1.0" font-size="10" stroke="none">
valor
</text>
<text x="137" y="56" fill="rgb(0,128,0)" fill-opacity="1.0" font-size="10" stroke="none">
NUMBER (6,2)
</text>
<text x="16" y="69" fill="rgb(255,0,0)" fill-opacity="1.0" font-size="10" stroke="none">
*
</text>
<text x="2" y="69" fill="rgb(0,0,0)" fill-opacity="1.0" font-size="10" stroke="none">
F
</text>
<text x="26" y="69" fill="rgb(0,0,0)" fill-opacity="1.0" font-size="10" stroke="none">
usuario_id_usuario
</text>
<text x="137" y="69" fill="rgb(0,128,0)" fill-opacity="1.0" font-size="10" stroke="none">
NUMBER (10)
</text>
<text x="16" y="82" fill="rgb(255,0,0)" fill-opacity="1.0" font-size="10" stroke="none">
*
</text>
<text x="26" y="82" fill="rgb(0,0,0)" fill-opacity="1.0" font-size="10" stroke="none">
final_cartao
</text>
<text x="137" y="82" fill="rgb(0,128,0)" fill-opacity="1.0" font-size="10" stroke="none">
NUMBER (4)
</text>
<text x="16" y="95" fill="rgb(255,0,0)" fill-opacity="1.0" font-size="10" stroke="none">
*
</text>
<text x="2" y="95" fill="rgb(0,0,0)" fill-opacity="1.0" font-size="10" stroke="none">
F
</text>
<text x="26" y="95" fill="rgb(0,0,0)" fill-opacity="1.0" font-size="10" stroke="none">
plano_id_plano
</text>
<text x="137" y="95" fill="rgb(0,128,0)" fill-opacity="1.0" font-size="10" stroke="none">
NUMBER (4)
</text>
<line x1="0" y1="101" x2="235" y2="101" fill="none" stroke="rgb(0,0,255)"/>
<use xlink:href="#pk_sym" x="4" y="108" width="8" height="8" fill-opacity="1.0"/>
<text x="16" y="114" fill="rgb(0,0,0)" fill-opacity="1.0" font-size="10" stroke="none">
cobranca_PK (id_cobranca)
</text>
<line x1="0" y1="120" x2="235" y2="120" fill="none" stroke="rgb(0,0,255)"/>
<use xlink:href="#fk_sym" x="4" y="127" width="8" height="8" fill-opacity="1.0"/><a xlink:href="#619FA8AF-D5ADA11423C8" >
<text x="16" y="133" fill="rgb(0,0,0)" fill-opacity="1.0" font-size="10" stroke="none">
cobranca_usuario_FK (usuario_id_usuario)
</text></a>
<use xlink:href="#fk_sym" x="4" y="140" width="8" height="8" fill-opacity="1.0"/><a xlink:href="#487F0084-0A61F6E8E6FA" >
<text x="16" y="146" fill="rgb(0,0,0)" fill-opacity="1.0" font-size="10" stroke="none">
cobranca_plano_FK (plano_id_plano)
</text></a>
</g>
<g  fill="rgb(255,255,180)" stroke="rgb(0,0,255)" fill-opacity="1.0" stroke-opacity="1.0" clip-path="url(#clipPath11_0_)" transform="translate(433,557)" >
<rect x="0" y="0" width="273" height="95" />
<text id="8364A1D4-0895E4CF6F4A" x="90" y="13" fill="rgb(0,0,255)" font-weight="bold"  fill-opacity="1.0" font-size="10" stroke="none">
rel_musica_album
</text>
<line x1="0" y1="17" x2="272" y2="17" fill="none" stroke="rgb(0,0,255)"/>
<text x="16" y="30" fill="rgb(255,0,0)" fill-opacity="1.0" font-size="10" stroke="none">
*
</text>
<text x="2" y="30" fill="rgb(0,0,0)" fill-opacity="1.0" font-size="10" stroke="none">
F
</text>
<text x="26" y="30" fill="rgb(0,0,0)" fill-opacity="1.0" font-size="10" stroke="none">
musica_id_musica
</text>
<text x="133" y="30" fill="rgb(0,128,0)" fill-opacity="1.0" font-size="10" stroke="none">
NUMBER (20)
</text>
<text x="16" y="43" fill="rgb(255,0,0)" fill-opacity="1.0" font-size="10" stroke="none">
*
</text>
<text x="2" y="43" fill="rgb(0,0,0)" fill-opacity="1.0" font-size="10" stroke="none">
F
</text>
<text x="26" y="43" fill="rgb(0,0,0)" fill-opacity="1.0" font-size="10" stroke="none">
album_id_album
</text>
<text x="133" y="43" fill="rgb(0,128,0)" fill-opacity="1.0" font-size="10" stroke="none">
NUMBER (10)
</text>
<text x="16" y="56" fill="rgb(255,0,0)" fill-opacity="1.0" font-size="10" stroke="none">
*
</text>
<text x="26" y="56" fill="rgb(0,0,0)" fill-opacity="1.0" font-size="10" stroke="none">
ordem_musica
</text>
<text x="133" y="56" fill="rgb(0,128,0)" fill-opacity="1.0" font-size="10" stroke="none">
NUMBER (4)
</text>
<line x1="0" y1="62" x2="272" y2="62" fill="none" stroke="rgb(0,0,255)"/>
<use xlink:href="#fk_sym" x="4" y="69" width="8" height="8" fill-opacity="1.0"/><a xlink:href="#2C274FF1-5C18B5126EB5" >
<text x="16" y="75" fill="rgb(0,0,0)" fill-opacity="1.0" font-size="10" stroke="none">
rel_musica_album_musica_FK (musica_id_musica)
</text></a>
<use xlink:href="#fk_sym" x="4" y="82" width="8" height="8" fill-opacity="1.0"/><a xlink:href="#F83EEBAC-852B793EA83B" >
<text x="16" y="88" fill="rgb(0,0,0)" fill-opacity="1.0" font-size="10" stroke="none">
rel_musica_album_album_FK (album_id_album)
</text></a>
</g>
<g  fill="rgb(255,255,180)" stroke="rgb(0,0,255)" fill-opacity="1.0" stroke-opacity="1.0" clip-path="url(#clipPath1_0_)" transform="translate(139,521)" >
<rect x="0" y="0" width="218" height="110" />
<text id="F83EEBAC-852B793EA83B" x="93" y="13" fill="rgb(0,0,255)" font-weight="bold"  fill-opacity="1.0" font-size="10" stroke="none">
album
</text>
<line x1="0" y1="17" x2="217" y2="17" fill="none" stroke="rgb(0,0,255)"/>
<text x="16" y="30" fill="rgb(255,0,0)" fill-opacity="1.0" font-size="10" stroke="none">
*
</text>
<text x="2" y="30" fill="rgb(0,0,255)" fill-opacity="1.0" font-size="10" stroke="none">
P
</text>
<text x="26" y="30" fill="rgb(0,0,0)" fill-opacity="1.0" font-size="10" stroke="none">
id_album
</text>
<text x="126" y="30" fill="rgb(0,128,0)" fill-opacity="1.0" font-size="10" stroke="none">
NUMBER (10)
</text>
<text x="16" y="43" fill="rgb(255,0,0)" fill-opacity="1.0" font-size="10" stroke="none">
*
</text>
<text x="26" y="43" fill="rgb(0,0,0)" fill-opacity="1.0" font-size="10" stroke="none">
titulo
</text>
<text x="126" y="43" fill="rgb(0,128,0)" fill-opacity="1.0" font-size="10" stroke="none">
VARCHAR2 (120)
</text>
<text x="16" y="56" fill="rgb(255,0,0)" fill-opacity="1.0" font-size="10" stroke="none">

</text>
<text x="26" y="56" fill="rgb(0,0,0)" fill-opacity="1.0" font-size="10" stroke="none">
ano_lancamento
</text>
<text x="126" y="56" fill="rgb(0,128,0)" fill-opacity="1.0" font-size="10" stroke="none">
NUMBER (4)
</text>
<text x="16" y="69" fill="rgb(255,0,0)" fill-opacity="1.0" font-size="10" stroke="none">

</text>
<text x="26" y="69" fill="rgb(0,0,0)" fill-opacity="1.0" font-size="10" stroke="none">
img_capa
</text>
<text x="126" y="69" fill="rgb(0,128,0)" fill-opacity="1.0" font-size="10" stroke="none">
BLOB
</text>
<text x="16" y="82" fill="rgb(255,0,0)" fill-opacity="1.0" font-size="10" stroke="none">

</text>
<text x="26" y="82" fill="rgb(0,0,0)" fill-opacity="1.0" font-size="10" stroke="none">
gravadora
</text>
<text x="126" y="82" fill="rgb(0,128,0)" fill-opacity="1.0" font-size="10" stroke="none">
VARCHAR2 (120)
</text>
<line x1="0" y1="88" x2="217" y2="88" fill="none" stroke="rgb(0,0,255)"/>
<use xlink:href="#pk_sym" x="4" y="95" width="8" height="8" fill-opacity="1.0"/>
<text x="16" y="101" fill="rgb(0,0,0)" fill-opacity="1.0" font-size="10" stroke="none">
album_PK (id_album)
</text>
</g>
<g  fill="rgb(255,255,180)" stroke="rgb(0,0,255)" fill-opacity="1.0" stroke-opacity="1.0" clip-path="url(#clipPath3_0_)" transform="translate(747,494)" >
<rect x="0" y="0" width="262" height="155" />
<text id="41A689E4-8B63E74E0835" x="95" y="13" fill="rgb(0,0,255)" font-weight="bold"  fill-opacity="1.0" font-size="10" stroke="none">
cartao_credito
</text>
<line x1="0" y1="17" x2="261" y2="17" fill="none" stroke="rgb(0,0,255)"/>
<text x="16" y="30" fill="rgb(255,0,0)" fill-opacity="1.0" font-size="10" stroke="none">
*
</text>
<text x="2" y="30" fill="rgb(0,0,255)" fill-opacity="1.0" font-size="10" stroke="none">
P
</text>
<text x="26" y="30" fill="rgb(0,0,0)" fill-opacity="1.0" font-size="10" stroke="none">
id_cartao
</text>
<text x="137" y="30" fill="rgb(0,128,0)" fill-opacity="1.0" font-size="10" stroke="none">
NUMBER (10)
</text>
<text x="16" y="43" fill="rgb(255,0,0)" fill-opacity="1.0" font-size="10" stroke="none">
*
</text>
<text x="26" y="43" fill="rgb(0,0,0)" fill-opacity="1.0" font-size="10" stroke="none">
nome_impresso
</text>
<text x="137" y="43" fill="rgb(0,128,0)" fill-opacity="1.0" font-size="10" stroke="none">
VARCHAR2 (30)
</text>
<text x="16" y="56" fill="rgb(255,0,0)" fill-opacity="1.0" font-size="10" stroke="none">
*
</text>
<text x="26" y="56" fill="rgb(0,0,0)" fill-opacity="1.0" font-size="10" stroke="none">
numero
</text>
<text x="137" y="56" fill="rgb(0,128,0)" fill-opacity="1.0" font-size="10" stroke="none">
NUMBER (16)
</text>
<text x="16" y="69" fill="rgb(255,0,0)" fill-opacity="1.0" font-size="10" stroke="none">
*
</text>
<text x="26" y="69" fill="rgb(0,0,0)" fill-opacity="1.0" font-size="10" stroke="none">
validade_mes
</text>
<text x="137" y="69" fill="rgb(0,128,0)" fill-opacity="1.0" font-size="10" stroke="none">
NUMBER (2)
</text>
<text x="16" y="82" fill="rgb(255,0,0)" fill-opacity="1.0" font-size="10" stroke="none">
*
</text>
<text x="26" y="82" fill="rgb(0,0,0)" fill-opacity="1.0" font-size="10" stroke="none">
validade_ano
</text>
<text x="137" y="82" fill="rgb(0,128,0)" fill-opacity="1.0" font-size="10" stroke="none">
NUMBER (4)
</text>
<text x="16" y="95" fill="rgb(255,0,0)" fill-opacity="1.0" font-size="10" stroke="none">
*
</text>
<text x="26" y="95" fill="rgb(0,0,0)" fill-opacity="1.0" font-size="10" stroke="none">
cvv
</text>
<text x="137" y="95" fill="rgb(0,128,0)" fill-opacity="1.0" font-size="10" stroke="none">
NUMBER (3)
</text>
<text x="16" y="108" fill="rgb(255,0,0)" fill-opacity="1.0" font-size="10" stroke="none">
*
</text>
<text x="2" y="108" fill="rgb(0,0,0)" fill-opacity="1.0" font-size="10" stroke="none">
F
</text>
<text x="26" y="108" fill="rgb(0,0,0)" fill-opacity="1.0" font-size="10" stroke="none">
usuario_id_usuario
</text>
<text x="137" y="108" fill="rgb(0,128,0)" fill-opacity="1.0" font-size="10" stroke="none">
NUMBER (10)
</text>
<line x1="0" y1="114" x2="261" y2="114" fill="none" stroke="rgb(0,0,255)"/>
<use xlink:href="#pk_sym" x="4" y="121" width="8" height="8" fill-opacity="1.0"/>
<text x="16" y="127" fill="rgb(0,0,0)" fill-opacity="1.0" font-size="10" stroke="none">
cartao_credito_PK (id_cartao)
</text>
<line x1="0" y1="133" x2="261" y2="133" fill="none" stroke="rgb(0,0,255)"/>
<use xlink:href="#fk_sym" x="4" y="140" width="8" height="8" fill-opacity="1.0"/><a xlink:href="#619FA8AF-D5ADA11423C8" >
<text x="16" y="146" fill="rgb(0,0,0)" fill-opacity="1.0" font-size="10" stroke="none">
cartao_credito_usuario_FK (usuario_id_usuario)
</text></a>
</g>
<g  fill="rgb(255,255,180)" stroke="rgb(0,0,255)" fill-opacity="1.0" stroke-opacity="1.0" clip-path="url(#clipPath9_0_)" transform="translate(1189,215)" >
<rect x="0" y="0" width="184" height="110" />
<text id="487F0084-0A61F6E8E6FA" x="78" y="13" fill="rgb(0,0,255)" font-weight="bold"  fill-opacity="1.0" font-size="10" stroke="none">
plano
</text>
<line x1="0" y1="17" x2="183" y2="17" fill="none" stroke="rgb(0,0,255)"/>
<text x="16" y="30" fill="rgb(255,0,0)" fill-opacity="1.0" font-size="10" stroke="none">
*
</text>
<text x="2" y="30" fill="rgb(0,0,255)" fill-opacity="1.0" font-size="10" stroke="none">
P
</text>
<text x="26" y="30" fill="rgb(0,0,0)" fill-opacity="1.0" font-size="10" stroke="none">
id_plano
</text>
<text x="92" y="30" fill="rgb(0,128,0)" fill-opacity="1.0" font-size="10" stroke="none">
NUMBER (4)
</text>
<text x="16" y="43" fill="rgb(255,0,0)" fill-opacity="1.0" font-size="10" stroke="none">
*
</text>
<text x="26" y="43" fill="rgb(0,0,0)" fill-opacity="1.0" font-size="10" stroke="none">
titulo
</text>
<text x="92" y="43" fill="rgb(0,128,0)" fill-opacity="1.0" font-size="10" stroke="none">
VARCHAR2 (20)
</text>
<text x="16" y="56" fill="rgb(255,0,0)" fill-opacity="1.0" font-size="10" stroke="none">

</text>
<text x="26" y="56" fill="rgb(0,0,0)" fill-opacity="1.0" font-size="10" stroke="none">
descricao
</text>
<text x="92" y="56" fill="rgb(0,128,0)" fill-opacity="1.0" font-size="10" stroke="none">
VARCHAR2 (150)
</text>
<text x="16" y="69" fill="rgb(255,0,0)" fill-opacity="1.0" font-size="10" stroke="none">
*
</text>
<text x="26" y="69" fill="rgb(0,0,0)" fill-opacity="1.0" font-size="10" stroke="none">
valor
</text>
<text x="92" y="69" fill="rgb(0,128,0)" fill-opacity="1.0" font-size="10" stroke="none">
NUMBER (6,2)
</text>
<text x="16" y="82" fill="rgb(255,0,0)" fill-opacity="1.0" font-size="10" stroke="none">
*
</text>
<text x="26" y="82" fill="rgb(0,0,0)" fill-opacity="1.0" font-size="10" stroke="none">
vigencia
</text>
<text x="92" y="82" fill="rgb(0,128,0)" fill-opacity="1.0" font-size="10" stroke="none">
NUMBER (3)
</text>
<line x1="0" y1="88" x2="183" y2="88" fill="none" stroke="rgb(0,0,255)"/>
<use xlink:href="#pk_sym" x="4" y="95" width="8" height="8" fill-opacity="1.0"/>
<text x="16" y="101" fill="rgb(0,0,0)" fill-opacity="1.0" font-size="10" stroke="none">
plano_PK (id_plano)
</text>
</g>
<g  fill="rgb(255,255,180)" stroke="rgb(0,0,255)" fill-opacity="1.0" stroke-opacity="1.0" clip-path="url(#clipPath2_0_)" transform="translate(149,364)" >
<rect x="0" y="0" width="200" height="116" />
<text id="A59E2EA4-8C60EB8312E5" x="83" y="13" fill="rgb(0,0,255)" font-weight="bold"  fill-opacity="1.0" font-size="10" stroke="none">
artista
</text>
<line x1="0" y1="17" x2="199" y2="17" fill="none" stroke="rgb(0,0,255)"/>
<text x="16" y="30" fill="rgb(255,0,0)" fill-opacity="1.0" font-size="10" stroke="none">
*
</text>
<text x="2" y="30" fill="rgb(0,0,255)" fill-opacity="1.0" font-size="10" stroke="none">
P
</text>
<text x="26" y="30" fill="rgb(0,0,0)" fill-opacity="1.0" font-size="10" stroke="none">
id_artista
</text>
<text x="102" y="30" fill="rgb(0,128,0)" fill-opacity="1.0" font-size="10" stroke="none">
NUMBER (10)
</text>
<text x="16" y="43" fill="rgb(255,0,0)" fill-opacity="1.0" font-size="10" stroke="none">
*
</text>
<text x="26" y="43" fill="rgb(0,0,0)" fill-opacity="1.0" font-size="10" stroke="none">
nome
</text>
<text x="102" y="43" fill="rgb(0,128,0)" fill-opacity="1.0" font-size="10" stroke="none">
VARCHAR2 (120)
</text>
<text x="16" y="56" fill="rgb(255,0,0)" fill-opacity="1.0" font-size="10" stroke="none">

</text>
<text x="26" y="56" fill="rgb(0,0,0)" fill-opacity="1.0" font-size="10" stroke="none">
bibliografia
</text>
<text x="102" y="56" fill="rgb(0,128,0)" fill-opacity="1.0" font-size="10" stroke="none">
VARCHAR2 (2000)
</text>
<text x="16" y="69" fill="rgb(255,0,0)" fill-opacity="1.0" font-size="10" stroke="none">
*
</text>
<text x="2" y="69" fill="rgb(0,0,0)" fill-opacity="1.0" font-size="10" stroke="none">
F
</text>
<text x="26" y="69" fill="rgb(0,0,0)" fill-opacity="1.0" font-size="10" stroke="none">
pais_id_pais
</text>
<text x="102" y="69" fill="rgb(0,128,0)" fill-opacity="1.0" font-size="10" stroke="none">
NUMBER (4)
</text>
<line x1="0" y1="75" x2="199" y2="75" fill="none" stroke="rgb(0,0,255)"/>
<use xlink:href="#pk_sym" x="4" y="82" width="8" height="8" fill-opacity="1.0"/>
<text x="16" y="88" fill="rgb(0,0,0)" fill-opacity="1.0" font-size="10" stroke="none">
artista_PK (id_artista)
</text>
<line x1="0" y1="94" x2="199" y2="94" fill="none" stroke="rgb(0,0,255)"/>
<use xlink:href="#fk_sym" x="4" y="101" width="8" height="8" fill-opacity="1.0"/><a xlink:href="#72BE5A0D-0D53686263D6" >
<text x="16" y="107" fill="rgb(0,0,0)" fill-opacity="1.0" font-size="10" stroke="none">
artista_pais_FK (pais_id_pais)
</text></a>
</g>
<g  fill="rgb(255,255,180)" stroke="rgb(0,0,255)" fill-opacity="1.0" stroke-opacity="1.0" clip-path="url(#clipPath10_0_)" transform="translate(671,240)" >
<rect x="0" y="0" width="217" height="95" />
<text id="888829CB-DD9FA87FA378" x="67" y="13" fill="rgb(0,0,255)" font-weight="bold"  fill-opacity="1.0" font-size="10" stroke="none">
rel_lista_musica
</text>
<line x1="0" y1="17" x2="216" y2="17" fill="none" stroke="rgb(0,0,255)"/>
<text x="16" y="30" fill="rgb(255,0,0)" fill-opacity="1.0" font-size="10" stroke="none">
*
</text>
<text x="2" y="30" fill="rgb(0,0,0)" fill-opacity="1.0" font-size="10" stroke="none">
F
</text>
<text x="26" y="30" fill="rgb(0,0,0)" fill-opacity="1.0" font-size="10" stroke="none">
musica_id_musica
</text>
<text x="144" y="30" fill="rgb(0,128,0)" fill-opacity="1.0" font-size="10" stroke="none">
NUMBER (20)
</text>
<text x="16" y="43" fill="rgb(255,0,0)" fill-opacity="1.0" font-size="10" stroke="none">
*
</text>
<text x="2" y="43" fill="rgb(0,0,0)" fill-opacity="1.0" font-size="10" stroke="none">
F
</text>
<text x="26" y="43" fill="rgb(0,0,0)" fill-opacity="1.0" font-size="10" stroke="none">
lista_reprod_id_lista
</text>
<text x="144" y="43" fill="rgb(0,128,0)" fill-opacity="1.0" font-size="10" stroke="none">
NUMBER (10)
</text>
<text x="16" y="56" fill="rgb(255,0,0)" fill-opacity="1.0" font-size="10" stroke="none">
*
</text>
<text x="26" y="56" fill="rgb(0,0,0)" fill-opacity="1.0" font-size="10" stroke="none">
ordem_musica
</text>
<text x="144" y="56" fill="rgb(0,128,0)" fill-opacity="1.0" font-size="10" stroke="none">
NUMBER (4)
</text>
<line x1="0" y1="62" x2="216" y2="62" fill="none" stroke="rgb(0,0,255)"/>
<use xlink:href="#fk_sym" x="4" y="69" width="8" height="8" fill-opacity="1.0"/><a xlink:href="#2C274FF1-5C18B5126EB5" >
<text x="16" y="75" fill="rgb(0,0,0)" fill-opacity="1.0" font-size="10" stroke="none">
musica_FK (musica_id_musica)
</text></a>
<use xlink:href="#fk_sym" x="4" y="82" width="8" height="8" fill-opacity="1.0"/><a xlink:href="#C3831CFE-01ED5E76C6E1" >
<text x="16" y="88" fill="rgb(0,0,0)" fill-opacity="1.0" font-size="10" stroke="none">
lista_reprod_FK (lista_reprod_id_lista)
</text></a>
</g>
<g  fill="rgb(255,255,180)" stroke="rgb(0,0,255)" fill-opacity="1.0" stroke-opacity="1.0" clip-path="url(#clipPath12_0_)" transform="translate(944,255)" >
<rect x="0" y="0" width="208" height="168" />
<text id="619FA8AF-D5ADA11423C8" x="84" y="13" fill="rgb(0,0,255)" font-weight="bold"  fill-opacity="1.0" font-size="10" stroke="none">
usuario
</text>
<line x1="0" y1="17" x2="207" y2="17" fill="none" stroke="rgb(0,0,255)"/>
<text x="16" y="30" fill="rgb(255,0,0)" fill-opacity="1.0" font-size="10" stroke="none">
*
</text>
<text x="2" y="30" fill="rgb(0,0,255)" fill-opacity="1.0" font-size="10" stroke="none">
P
</text>
<text x="26" y="30" fill="rgb(0,0,0)" fill-opacity="1.0" font-size="10" stroke="none">
id_usuario
</text>
<text x="122" y="30" fill="rgb(0,128,0)" fill-opacity="1.0" font-size="10" stroke="none">
NUMBER (10)
</text>
<text x="16" y="43" fill="rgb(255,0,0)" fill-opacity="1.0" font-size="10" stroke="none">
*
</text>
<text x="26" y="43" fill="rgb(0,0,0)" fill-opacity="1.0" font-size="10" stroke="none">
email
</text>
<text x="122" y="43" fill="rgb(0,128,0)" fill-opacity="1.0" font-size="10" stroke="none">
VARCHAR2 (50)
</text>
<text x="16" y="56" fill="rgb(255,0,0)" fill-opacity="1.0" font-size="10" stroke="none">
*
</text>
<text x="26" y="56" fill="rgb(0,0,0)" fill-opacity="1.0" font-size="10" stroke="none">
senha
</text>
<text x="122" y="56" fill="rgb(0,128,0)" fill-opacity="1.0" font-size="10" stroke="none">
VARCHAR2 (30)
</text>
<text x="16" y="69" fill="rgb(255,0,0)" fill-opacity="1.0" font-size="10" stroke="none">
*
</text>
<text x="26" y="69" fill="rgb(0,0,0)" fill-opacity="1.0" font-size="10" stroke="none">
nome
</text>
<text x="122" y="69" fill="rgb(0,128,0)" fill-opacity="1.0" font-size="10" stroke="none">
VARCHAR2 (80)
</text>
<text x="16" y="82" fill="rgb(255,0,0)" fill-opacity="1.0" font-size="10" stroke="none">

</text>
<text x="26" y="82" fill="rgb(0,0,0)" fill-opacity="1.0" font-size="10" stroke="none">
foto
</text>
<text x="122" y="82" fill="rgb(0,128,0)" fill-opacity="1.0" font-size="10" stroke="none">
BLOB
</text>
<text x="16" y="95" fill="rgb(255,0,0)" fill-opacity="1.0" font-size="10" stroke="none">

</text>
<text x="2" y="95" fill="rgb(0,0,0)" fill-opacity="1.0" font-size="10" stroke="none">
F
</text>
<text x="26" y="95" fill="rgb(0,0,0)" fill-opacity="1.0" font-size="10" stroke="none">
id_usuario_resp
</text>
<text x="122" y="95" fill="rgb(0,128,0)" fill-opacity="1.0" font-size="10" stroke="none">
NUMBER (10)
</text>
<text x="16" y="108" fill="rgb(255,0,0)" fill-opacity="1.0" font-size="10" stroke="none">
*
</text>
<text x="2" y="108" fill="rgb(0,0,0)" fill-opacity="1.0" font-size="10" stroke="none">
F
</text>
<text x="26" y="108" fill="rgb(0,0,0)" fill-opacity="1.0" font-size="10" stroke="none">
plano_id_plano
</text>
<text x="122" y="108" fill="rgb(0,128,0)" fill-opacity="1.0" font-size="10" stroke="none">
NUMBER (4)
</text>
<line x1="0" y1="114" x2="207" y2="114" fill="none" stroke="rgb(0,0,255)"/>
<use xlink:href="#pk_sym" x="4" y="121" width="8" height="8" fill-opacity="1.0"/>
<text x="16" y="127" fill="rgb(0,0,0)" fill-opacity="1.0" font-size="10" stroke="none">
usuario_PK (id_usuario)
</text>
<line x1="0" y1="133" x2="207" y2="133" fill="none" stroke="rgb(0,0,255)"/>
<use xlink:href="#fk_sym" x="4" y="140" width="8" height="8" fill-opacity="1.0"/><a xlink:href="#619FA8AF-D5ADA11423C8" >
<text x="16" y="146" fill="rgb(0,0,0)" fill-opacity="1.0" font-size="10" stroke="none">
id_responsavel (id_usuario_resp)
</text></a>
<use xlink:href="#fk_sym" x="4" y="153" width="8" height="8" fill-opacity="1.0"/><a xlink:href="#487F0084-0A61F6E8E6FA" >
<text x="16" y="159" fill="rgb(0,0,0)" fill-opacity="1.0" font-size="10" stroke="none">
usuario_plano_FK (plano_id_plano)
</text></a>
</g>

</svg>